<?xml version="1.0" encoding="UTF-8"?>
<svg xmlns="http://www.w3.org/2000/svg" xmlns:xlink="http://www.w3.org/1999/xlink" version="1.1" viewBox="0 0 1580 300">
  <!-- Horizontal lockup composed from ARC CONNECT FOR BIWAZE LOGO_3 (updated-arc-connect-logo.svg).
       Icon translated only (gradients untouched); wordmark path scaled 2.9x so it stays
       legible at header size (56px tall). -->
  <defs>
    <style>
      .st0 {
        stroke: #231f20;
        stroke-miterlimit: 10;
      }

      .st1, .st2, .st3, .st4, .st5 {
        isolation: isolate;
      }

      .st2 {
        fill: url(#linear-gradient);
      }

      .st2, .st3, .st4, .st5 {
        mix-blend-mode: multiply;
      }

      .st3 {
        fill: url(#linear-gradient3);
      }

      .st4 {
        fill: url(#linear-gradient2);
      }

      .st5 {
        fill: url(#linear-gradient1);
      }
    </style>
    <linearGradient id="linear-gradient" x1="97.1" y1="204.8" x2="223.6" y2="204.8" gradientTransform="translate(-81.8 50.3) rotate(76.3) scale(1 -1)" gradientUnits="userSpaceOnUse">
      <stop offset="0" stop-color="#fff"/>
      <stop offset="0" stop-color="#f3fbfd" stop-opacity="1"/>
      <stop offset=".2" stop-color="#bce8f5" stop-opacity=".8"/>
      <stop offset=".3" stop-color="#93daef" stop-opacity=".7"/>
      <stop offset=".3" stop-color="#7ad2ec" stop-opacity=".6"/>
      <stop offset=".4" stop-color="#71cfeb" stop-opacity=".6"/>
      <stop offset="1" stop-color="#26a9e0"/>
    </linearGradient>
    <linearGradient id="linear-gradient1" x1="194.3" y1="64.9" x2="194.3" y2="314.6" gradientTransform="translate(-75.1 105.3) rotate(59.6) scale(1 -1)" gradientUnits="userSpaceOnUse">
      <stop offset="0" stop-color="#fff"/>
      <stop offset="0" stop-color="#f3fbfd" stop-opacity="1"/>
      <stop offset=".2" stop-color="#bce8f5" stop-opacity=".8"/>
      <stop offset=".3" stop-color="#93daef" stop-opacity=".7"/>
      <stop offset=".3" stop-color="#7ad2ec" stop-opacity=".6"/>
      <stop offset=".4" stop-color="#71cfeb" stop-opacity=".6"/>
      <stop offset="1" stop-color="#26a9e0"/>
    </linearGradient>
    <linearGradient id="linear-gradient2" x1="300.2" y1="139.6" x2="300.2" y2="405.4" gradientTransform="translate(-78.7 301.9) rotate(21.4) scale(1 -1)" gradientUnits="userSpaceOnUse">
      <stop offset="0" stop-color="#fff"/>
      <stop offset="0" stop-color="#fbfdf7"/>
      <stop offset=".3" stop-color="#ddeaad"/>
      <stop offset=".5" stop-color="#cadf7f"/>
      <stop offset=".6" stop-color="#c3db6e"/>
      <stop offset="1" stop-color="#8bc53f"/>
    </linearGradient>
    <linearGradient id="linear-gradient3" x1="268.6" y1="136.9" x2="268.6" y2="369.3" gradientTransform="translate(-98.9 210.9) rotate(38) scale(1 -1)" gradientUnits="userSpaceOnUse">
      <stop offset="0" stop-color="#fff"/>
      <stop offset="0" stop-color="#fbfdf7"/>
      <stop offset=".3" stop-color="#ddeaad"/>
      <stop offset=".5" stop-color="#cadf7f"/>
      <stop offset=".6" stop-color="#c3db6e"/>
      <stop offset="1" stop-color="#8bc53f"/>
    </linearGradient>
  </defs>
  <g class="st1">
    <g transform="translate(-74.4, -8.9)">
<g>
        <g>
          <ellipse class="st2" cx="155.2" cy="157.4" rx="141" ry="55.3" transform="translate(-48 244.6) rotate(-68.6)"/>
          <ellipse class="st5" cx="186.9" cy="176.9" rx="141" ry="55.3" transform="translate(-67.6 215.1) rotate(-52)"/>
        </g>
        <g>
          <ellipse class="st4" cx="300.2" cy="157.5" rx="55.3" ry="141" transform="translate(-36.7 120.2) rotate(-21.4)"/>
          <ellipse class="st3" cx="268.6" cy="176.9" rx="55.3" ry="141" transform="translate(-52 202.9) rotate(-38)"/>
        </g>
      </g>
    </g>
    <g transform="translate(287, -803.5) scale(2.9)">
      <path class="st0" d="M45,301.6c-.2-.5-.6-.6-1-.6s-.7.2-1,.6l-23.7,52.8c0,.2-.2.3-.2.5,0,.6.5,1.1,1,1.1s.8-.2,1-.6l7.8-17.8h29.8l7.9,17.8c.2.3.5.6,1,.6s1.1-.5,1.1-1.1,0-.3-.2-.5l-23.7-52.8h0ZM44,304l14.1,31.8h-28.1l14.1-31.8h0ZM77.5,321.5v33.6c0,.5.5,1,1,1s1-.5,1-1v-19.1c0-7.8,6.8-13.8,14.3-13.8s.8-.4.8-.9-.3-.9-.8-.9c-6.2,0-12.3,3.7-14.3,8.9v-7.8c0-.5-.5-1-1-1s-1,.5-1,1h0ZM130.8,329.2c0-.3-.2-.6-.3-.9-3.2-4.9-8.7-8.2-15.2-8.2-10.6,0-18.1,8.1-18.1,18.1s7.5,18.1,18.1,18.1,12-3.3,15.2-8.2c.2-.2.3-.5.3-.9,0-.5-.4-.9-.9-.9s-.7.2-.9.5c-3.1,4.8-7.8,7.5-13.6,7.5-9.4,0-16.1-7.4-16.1-16.2s6.7-16.2,16.1-16.2,10.5,2.8,13.6,7.5c.2.3.5.5.9.5s.9-.4.9-.9h0ZM207.9,312.5c-3.1-6.7-10.2-11.9-19.9-11.9-17.6,0-31.8,15.4-31.8,32.9s8,22.9,22.1,22.9,19-5.2,24.2-11.9c.2-.2.3-.4.3-.8s-.5-.8-1-.8-.6.2-.9.5c-6.1,7.2-13.6,11.1-22.2,11.1-13.4,0-20.4-9.8-20.4-21.1s12.8-30.8,29.5-30.8,14.8,3.5,18.6,10.9c.2.4.5.6.8.6.5,0,1-.3,1-1s0-.2-.2-.6h0ZM248.3,335c0-8.8-6.3-14.9-15.4-14.9s-21.5,9.2-21.5,21.5,5.9,14.8,15.2,14.8,21.7-10.2,21.7-21.4h0ZM227,354.5c-8.9,0-13.5-5.5-13.5-13.1,0-11,8.6-19.3,19.2-19.3s13.5,5.2,13.5,13.2-8.4,19.2-19.2,19.2h0ZM283.9,356c.5,0,1.1-.5,1.2-1l3.6-18.6c1.7-8.5-3.6-15.3-12.5-15.3s-16.8,6.8-18.4,15.3l-3.6,18.6c-.1.5.3,1,.8,1s1.1-.5,1.2-1l3.6-18.7c1.5-7.5,8.2-13.3,16-13.3s12.3,5.9,10.9,13.3l-3.6,18.7c-.1.5.3,1,.8,1h0ZM324.8,356c.5,0,1.1-.5,1.2-1l3.6-18.6c1.7-8.5-3.6-15.3-12.5-15.3s-16.8,6.8-18.4,15.3l-3.6,18.6c-.1.5.3,1,.8,1s1.1-.5,1.2-1l3.6-18.7c1.5-7.5,8.2-13.3,16-13.3s12.3,5.9,10.9,13.3l-3.6,18.7c-.1.5.3,1,.8,1h0ZM372.4,337.6c.2-1,.2-2.1.2-3.1,0-8.1-5.9-14.4-14.4-14.4s-20.9,10-20.9,21.2,5.6,15,15.2,15,12.8-3.4,16.8-8.3c.6-.7.2-1.6-.6-1.6s-.6.2-.9.5c-3.9,4.8-9.1,7.7-15,7.7-8.6,0-13.5-5.9-13.5-13.2s0-1.9.2-2.9h31.5c.7,0,1.2-.3,1.3-1h0ZM370.5,336.7h-30.6c1.7-8,9.5-15,18-15s12.8,5.6,12.8,12.8,0,1.4-.2,2.1h0ZM414.8,328.4c-2.1-4.9-7.4-8.3-13.9-8.3-12.4,0-21.4,9.1-21.4,21.4s6,14.9,15.4,14.9,12.9-3.5,16.8-8.3c.2-.3.3-.5.3-.8,0-.5-.4-.9-1-.9s-.6.2-1,.5c-4.1,5.1-8.6,7.5-15,7.5-9,0-13.5-5.8-13.5-13.1,0-11.1,8.3-19.3,19.2-19.3s10.4,2.8,12.3,7.4c.2.4.5.6,1,.6s1-.3,1-1,0-.4-.2-.6h0ZM442.5,321.8c0-.5-.4-.8-1-.8h-9.5l2.1-11.8c0-.6-.2-1-.9-1s-1,.3-1.2,1l-2.1,11.8h-8.2c-.5,0-1,.3-1,1s.3.8,1,.8h8l-5.7,32.2c0,.5.2,1,.9,1s1.1-.4,1.2-1l5.7-32.2h9.7c.5,0,1.1-.3,1.1-1h0Z"/>
    </g>
  </g>
</svg>
